# xmcd
#
# Track frame offsets:
#	150
#	12760
#	30652
#	43060
#	57937
#	74425
#	86510
#	99722
#	119465
#	137547
#	153930
#	167072
#	181595
#	195872
#	210680
#
# Disc length: 3029
#
# Revision: 6
# Processed by: cddbd v1.5.1PL0 Copyright (c) Steve Scherf et al.
# Submitted via: VisiTrax 2.9.5.181 - For more info visit www.synapsa.com
# Normalized: r5:DSETVAR1
#
DISCID=bf0bd30f
DTITLE=Various Artist - More Country Heat
DYEAR=1900
DGENRE=Country
TTITLE0=Aaron Tippin - There Ain't Nothin Wrong With The Radio
TTITLE1=Michelle Wright - Take It Like A Man
TTITLE2=Alan Jackson - Dallas
TTITLE3=Alabama - Born Country
TTITLE4=Steve Wariner - The Tips Of My Fingers
TTITLE5=Restless Heart - You Can Depend On Me
TTITLE6=Lorrie Morgan - Except For Monday
TTITLE7=Brooks and Dunn - Neon Moon
TTITLE8=Pam Tillis - Maybe It Was Memphis
TTITLE9=Prairie Oyster - Did You Fall In Love With Me
TTITLE10=John Anderson - Straight Tequila Night
TTITLE11=Diamond Rio - Mirror Mirror
TTITLE12=Clint Black - Where Are You Now
TTITLE13=Earl Thomas Conley, Keith Whitley - Brotherly Love
TTITLE14=Ronnie Milsap - Turn That Radio On
EXTD=
EXTT0=
EXTT1=
EXTT2=
EXTT3=
EXTT4=
EXTT5=
EXTT6=
EXTT7=
EXTT8=
EXTT9=
EXTT10=
EXTT11=
EXTT12=
EXTT13=
EXTT14=
PLAYORDER=
